<svg width="32" height="32" viewBox="0 0 32 32" fill="none" xmlns="http://www.w3.org/2000/svg">
<path d="M10.289 24.3698L25.6414 15.5061L28.8933 21.1386L27.4019 21.9996L25.0883 17.9923L20.1755 20.8286L22.052 24.0789L20.5607 24.9399L18.6841 21.6897L12.7186 25.1339L15.1389 29.3259L13.6475 30.187L10.289 24.3698Z" fill="black"/>
<path d="M8.23744 21.171C6.97932 18.9919 7.66619 17.1426 10.298 15.6231L21.8562 8.94995L22.7945 10.5751L10.8634 17.4634C10.1616 17.8686 9.70968 18.3183 9.50763 18.8125C9.32731 19.3106 9.38642 19.8182 9.68495 20.3353C9.98349 20.8523 10.3935 21.1573 10.915 21.2502C11.4511 21.3346 12.0701 21.1742 12.7719 20.769L24.703 13.8807L25.6412 15.5058L14.083 22.1789C11.4512 23.6984 9.50266 23.3624 8.23744 21.171Z" fill="black"/>
<path d="M18.3524 2L20.2075 5.21328C20.8544 6.33362 21.0192 7.39573 20.702 8.39961C20.3848 9.4035 19.5756 10.2811 18.2743 11.0324L10.8613 15.3123C9.55997 16.0636 8.39533 16.3256 7.36735 16.0984C6.35398 15.8627 5.51658 15.1889 4.85513 14.077L2.99994 10.8637L18.3524 2ZM6.34651 13.2159C6.67348 13.7823 7.12655 14.1281 7.70573 14.2533C8.30664 14.3824 8.92876 14.2612 9.5721 13.8898L17.6869 9.2047C18.3303 8.83326 18.739 8.35929 18.913 7.78278C19.1087 7.21013 19.0431 6.64065 18.7162 6.07432L17.8099 4.50462L5.44024 11.6462L6.34651 13.2159Z" fill="black"/>
<rect x="3.5" y="2.5" width="24.9959" height="27.1989" stroke="#AF0000"/>
</svg>
