<svg width="1024" height="1024" viewBox="0 0 1024 1024" fill="none" xmlns="http://www.w3.org/2000/svg">
<path d="M317.147 794.629L841.911 491.657L953.066 684.181L902.088 713.613L823.005 576.636L655.08 673.588L719.222 784.684L668.245 814.116L604.103 703.019L400.195 820.746L482.923 964.035L431.946 993.466L317.147 794.629Z" fill="black"/>
<path d="M247.022 685.288C204.018 610.803 227.496 547.591 317.455 495.653L712.528 267.558L744.599 323.106L336.782 558.559C312.793 572.409 297.345 587.78 290.438 604.673C284.275 621.698 286.295 639.047 296.5 656.722C306.704 674.396 320.719 684.821 338.545 687.995C356.87 690.881 378.027 685.399 402.017 671.549L809.833 436.096L841.904 491.644L446.832 719.739C356.872 771.677 290.269 760.193 247.022 685.288Z" fill="black"/>
<path d="M592.764 30L656.177 139.834C678.286 178.128 683.92 214.433 673.078 248.747C662.237 283.061 634.576 313.058 590.096 338.738L336.71 485.031C292.23 510.712 252.421 519.668 217.283 511.9C182.645 503.844 154.022 480.812 131.413 442.806L68 332.973L592.764 30ZM182.39 413.375C193.566 432.733 209.052 444.552 228.849 448.833C249.389 453.246 270.654 449.104 292.644 436.408L570.02 276.265C592.01 263.569 605.979 247.368 611.927 227.662C618.618 208.089 616.376 188.623 605.2 169.265L574.222 115.611L151.412 359.72L182.39 413.375Z" fill="black"/>
<rect x="80" y="42" width="864.571" height="939.874" stroke="#AF0000" stroke-width="24"/>
</svg>
